{
	"patcher" : 	{
		"fileversion" : 1,
		"appversion" : 		{
			"major" : 6,
			"minor" : 1,
			"revision" : 10,
			"architecture" : "x64"
		}
,
		"rect" : [ 0.0, 45.0, 1676.0, 959.0 ],
		"bglocked" : 0,
		"openinpresentation" : 1,
		"default_fontsize" : 12.0,
		"default_fontface" : 0,
		"default_fontname" : "Arial",
		"gridonopen" : 0,
		"gridsize" : [ 15.0, 15.0 ],
		"gridsnaponopen" : 0,
		"statusbarvisible" : 2,
		"toolbarvisible" : 1,
		"boxanimatetime" : 200,
		"imprint" : 0,
		"enablehscroll" : 1,
		"enablevscroll" : 1,
		"devicewidth" : 0.0,
		"description" : "",
		"digest" : "",
		"tags" : "",
		"boxes" : [ 			{
				"box" : 				{
					"id" : "obj-3",
					"maxclass" : "ezdac~",
					"numinlets" : 2,
					"numoutlets" : 0,
					"patching_rect" : [ 774.0, 213.0, 45.0, 45.0 ],
					"presentation" : 1,
					"presentation_rect" : [ 563.642822, 84.0, 165.0, 165.0 ]
				}

			}
, 			{
				"box" : 				{
					"fontname" : "Arial",
					"fontsize" : 12.0,
					"id" : "obj-80",
					"maxclass" : "newobj",
					"numinlets" : 0,
					"numoutlets" : 1,
					"outlettype" : [ "" ],
					"patching_rect" : [ 1536.499878, 327.0, 40.0, 20.0 ],
					"text" : "r msg"
				}

			}
, 			{
				"box" : 				{
					"fontname" : "Arial",
					"fontsize" : 12.0,
					"id" : "obj-81",
					"maxclass" : "newobj",
					"numinlets" : 1,
					"numoutlets" : 2,
					"outlettype" : [ "", "" ],
					"patching_rect" : [ 1536.499878, 351.0, 74.0, 20.0 ],
					"text" : "osc-route /8"
				}

			}
, 			{
				"box" : 				{
					"fontname" : "Arial",
					"fontsize" : 12.0,
					"id" : "obj-78",
					"maxclass" : "newobj",
					"numinlets" : 0,
					"numoutlets" : 1,
					"outlettype" : [ "" ],
					"patching_rect" : [ 1470.642822, 327.0, 40.0, 20.0 ],
					"text" : "r msg"
				}

			}
, 			{
				"box" : 				{
					"fontname" : "Arial",
					"fontsize" : 12.0,
					"id" : "obj-79",
					"maxclass" : "newobj",
					"numinlets" : 1,
					"numoutlets" : 2,
					"outlettype" : [ "", "" ],
					"patching_rect" : [ 1470.642822, 351.0, 74.0, 20.0 ],
					"text" : "osc-route /7"
				}

			}
, 			{
				"box" : 				{
					"fontname" : "Arial",
					"fontsize" : 12.0,
					"id" : "obj-76",
					"maxclass" : "newobj",
					"numinlets" : 0,
					"numoutlets" : 1,
					"outlettype" : [ "" ],
					"patching_rect" : [ 1404.785645, 327.0, 40.0, 20.0 ],
					"text" : "r msg"
				}

			}
, 			{
				"box" : 				{
					"fontname" : "Arial",
					"fontsize" : 12.0,
					"id" : "obj-77",
					"maxclass" : "newobj",
					"numinlets" : 1,
					"numoutlets" : 2,
					"outlettype" : [ "", "" ],
					"patching_rect" : [ 1404.785645, 351.0, 74.0, 20.0 ],
					"text" : "osc-route /6"
				}

			}
, 			{
				"box" : 				{
					"fontname" : "Arial",
					"fontsize" : 12.0,
					"id" : "obj-75",
					"maxclass" : "newobj",
					"numinlets" : 0,
					"numoutlets" : 1,
					"outlettype" : [ "" ],
					"patching_rect" : [ 1207.214233, 327.0, 40.0, 20.0 ],
					"text" : "r msg"
				}

			}
, 			{
				"box" : 				{
					"fontname" : "Arial",
					"fontsize" : 12.0,
					"id" : "obj-74",
					"maxclass" : "newobj",
					"numinlets" : 0,
					"numoutlets" : 1,
					"outlettype" : [ "" ],
					"patching_rect" : [ 178.642822, 291.5, 50.0, 20.0 ],
					"text" : "r matrix"
				}

			}
, 			{
				"box" : 				{
					"fontname" : "Arial",
					"fontsize" : 12.0,
					"id" : "obj-73",
					"maxclass" : "newobj",
					"numinlets" : 1,
					"numoutlets" : 0,
					"patching_rect" : [ 1075.5, 919.0, 52.0, 20.0 ],
					"text" : "s matrix"
				}

			}
, 			{
				"box" : 				{
					"fontname" : "Arial",
					"fontsize" : 12.0,
					"id" : "obj-72",
					"maxclass" : "newobj",
					"numinlets" : 0,
					"numoutlets" : 1,
					"outlettype" : [ "" ],
					"patching_rect" : [ 1338.928467, 327.0, 40.0, 20.0 ],
					"text" : "r msg"
				}

			}
, 			{
				"box" : 				{
					"fontname" : "Arial",
					"fontsize" : 12.0,
					"id" : "obj-71",
					"maxclass" : "newobj",
					"numinlets" : 1,
					"numoutlets" : 2,
					"outlettype" : [ "", "" ],
					"patching_rect" : [ 1338.928467, 351.0, 74.0, 20.0 ],
					"text" : "osc-route /5"
				}

			}
, 			{
				"box" : 				{
					"fontname" : "Arial",
					"fontsize" : 12.0,
					"id" : "obj-70",
					"maxclass" : "newobj",
					"numinlets" : 1,
					"numoutlets" : 2,
					"outlettype" : [ "", "" ],
					"patching_rect" : [ 1272.999878, 351.0, 74.0, 20.0 ],
					"text" : "osc-route /4"
				}

			}
, 			{
				"box" : 				{
					"fontname" : "Arial",
					"fontsize" : 12.0,
					"id" : "obj-68",
					"maxclass" : "newobj",
					"numinlets" : 0,
					"numoutlets" : 1,
					"outlettype" : [ "" ],
					"patching_rect" : [ 1272.999878, 327.0, 40.0, 20.0 ],
					"text" : "r msg"
				}

			}
, 			{
				"box" : 				{
					"fontname" : "Arial",
					"fontsize" : 12.0,
					"id" : "obj-69",
					"maxclass" : "newobj",
					"numinlets" : 1,
					"numoutlets" : 2,
					"outlettype" : [ "", "" ],
					"patching_rect" : [ 1207.214233, 351.0, 74.0, 20.0 ],
					"text" : "osc-route /3"
				}

			}
, 			{
				"box" : 				{
					"fontname" : "Arial",
					"fontsize" : 12.0,
					"id" : "obj-66",
					"maxclass" : "newobj",
					"numinlets" : 0,
					"numoutlets" : 1,
					"outlettype" : [ "" ],
					"patching_rect" : [ 1140.357056, 327.0, 40.0, 20.0 ],
					"text" : "r msg"
				}

			}
, 			{
				"box" : 				{
					"fontname" : "Arial",
					"fontsize" : 12.0,
					"id" : "obj-67",
					"maxclass" : "newobj",
					"numinlets" : 1,
					"numoutlets" : 2,
					"outlettype" : [ "", "" ],
					"patching_rect" : [ 1140.357056, 351.0, 74.0, 20.0 ],
					"text" : "osc-route /2"
				}

			}
, 			{
				"box" : 				{
					"fontname" : "Arial",
					"fontsize" : 12.0,
					"id" : "obj-65",
					"maxclass" : "newobj",
					"numinlets" : 0,
					"numoutlets" : 1,
					"outlettype" : [ "" ],
					"patching_rect" : [ 1075.5, 327.0, 40.0, 20.0 ],
					"text" : "r msg"
				}

			}
, 			{
				"box" : 				{
					"fontname" : "Arial",
					"fontsize" : 12.0,
					"id" : "obj-64",
					"maxclass" : "newobj",
					"numinlets" : 1,
					"numoutlets" : 0,
					"patching_rect" : [ 776.0, 77.0, 43.0, 20.0 ],
					"text" : "s msg"
				}

			}
, 			{
				"box" : 				{
					"fontname" : "Arial",
					"fontsize" : 12.0,
					"id" : "obj-63",
					"maxclass" : "newobj",
					"numinlets" : 1,
					"numoutlets" : 2,
					"outlettype" : [ "", "" ],
					"patching_rect" : [ 1075.5, 351.0, 74.0, 20.0 ],
					"text" : "osc-route /1"
				}

			}
, 			{
				"box" : 				{
					"fontname" : "Arial",
					"fontsize" : 12.0,
					"id" : "obj-31",
					"maxclass" : "newobj",
					"numinlets" : 1,
					"numoutlets" : 1,
					"outlettype" : [ "" ],
					"patching_rect" : [ 776.0, 26.0, 99.0, 20.0 ],
					"text" : "udpreceive 7000"
				}

			}
, 			{
				"box" : 				{
					"fontname" : "Arial",
					"fontsize" : 12.0,
					"frgb" : 0.0,
					"id" : "obj-58",
					"maxclass" : "comment",
					"numinlets" : 1,
					"numoutlets" : 0,
					"patching_rect" : [ 650.642822, 56.0, 63.0, 20.0 ],
					"presentation" : 1,
					"presentation_rect" : [ 497.642822, 51.0, 63.0, 20.0 ],
					"text" : "8"
				}

			}
, 			{
				"box" : 				{
					"fontname" : "Arial",
					"fontsize" : 12.0,
					"frgb" : 0.0,
					"id" : "obj-57",
					"maxclass" : "comment",
					"numinlets" : 1,
					"numoutlets" : 0,
					"patching_rect" : [ 584.785767, 56.0, 63.0, 20.0 ],
					"presentation" : 1,
					"presentation_rect" : [ 431.785706, 51.0, 63.0, 20.0 ],
					"text" : "7"
				}

			}
, 			{
				"box" : 				{
					"fontname" : "Arial",
					"fontsize" : 12.0,
					"frgb" : 0.0,
					"id" : "obj-56",
					"maxclass" : "comment",
					"numinlets" : 1,
					"numoutlets" : 0,
					"patching_rect" : [ 518.928589, 56.0, 63.0, 20.0 ],
					"presentation" : 1,
					"presentation_rect" : [ 365.928589, 51.0, 63.0, 20.0 ],
					"text" : "6"
				}

			}
, 			{
				"box" : 				{
					"fontname" : "Arial",
					"fontsize" : 12.0,
					"frgb" : 0.0,
					"id" : "obj-55",
					"maxclass" : "comment",
					"numinlets" : 1,
					"numoutlets" : 0,
					"patching_rect" : [ 453.071442, 56.0, 63.0, 20.0 ],
					"presentation" : 1,
					"presentation_rect" : [ 300.071411, 51.0, 63.0, 20.0 ],
					"text" : "5"
				}

			}
, 			{
				"box" : 				{
					"fontname" : "Arial",
					"fontsize" : 12.0,
					"frgb" : 0.0,
					"id" : "obj-54",
					"maxclass" : "comment",
					"numinlets" : 1,
					"numoutlets" : 0,
					"patching_rect" : [ 387.214325, 56.0, 63.0, 20.0 ],
					"presentation" : 1,
					"presentation_rect" : [ 234.214294, 51.0, 63.0, 20.0 ],
					"text" : "4"
				}

			}
, 			{
				"box" : 				{
					"fontname" : "Arial",
					"fontsize" : 12.0,
					"frgb" : 0.0,
					"id" : "obj-53",
					"maxclass" : "comment",
					"numinlets" : 1,
					"numoutlets" : 0,
					"patching_rect" : [ 321.357147, 56.0, 63.0, 20.0 ],
					"presentation" : 1,
					"presentation_rect" : [ 168.357117, 51.0, 63.0, 20.0 ],
					"text" : "3"
				}

			}
, 			{
				"box" : 				{
					"fontname" : "Arial",
					"fontsize" : 12.0,
					"frgb" : 0.0,
					"id" : "obj-52",
					"maxclass" : "comment",
					"numinlets" : 1,
					"numoutlets" : 0,
					"patching_rect" : [ 254.500031, 56.0, 63.0, 20.0 ],
					"presentation" : 1,
					"presentation_rect" : [ 105.357117, 51.0, 63.0, 20.0 ],
					"text" : "2"
				}

			}
, 			{
				"box" : 				{
					"fontname" : "Arial",
					"fontsize" : 12.0,
					"frgb" : 0.0,
					"id" : "obj-51",
					"maxclass" : "comment",
					"numinlets" : 1,
					"numoutlets" : 0,
					"patching_rect" : [ 189.642883, 56.0, 63.0, 20.0 ],
					"presentation" : 1,
					"presentation_rect" : [ 36.642853, 51.0, 63.0, 20.0 ],
					"text" : "1"
				}

			}
, 			{
				"box" : 				{
					"fontname" : "Arial",
					"fontsize" : 12.0,
					"frgb" : 0.0,
					"id" : "obj-49",
					"maxclass" : "comment",
					"numinlets" : 1,
					"numoutlets" : 0,
					"patching_rect" : [ 27.0, 56.0, 150.0, 20.0 ],
					"presentation" : 1,
					"presentation_rect" : [ 36.642853, 31.0, 150.0, 20.0 ],
					"text" : "inputs"
				}

			}
, 			{
				"box" : 				{
					"fontname" : "Arial",
					"fontsize" : 12.0,
					"frgb" : 0.0,
					"id" : "obj-47",
					"maxclass" : "comment",
					"numinlets" : 1,
					"numoutlets" : 0,
					"patching_rect" : [ 897.0, 867.0, 150.0, 20.0 ],
					"presentation" : 1,
					"presentation_rect" : [ 746.642822, 757.0, 150.0, 20.0 ],
					"text" : "10"
				}

			}
, 			{
				"box" : 				{
					"fontname" : "Arial",
					"fontsize" : 12.0,
					"frgb" : 0.0,
					"id" : "obj-46",
					"maxclass" : "comment",
					"numinlets" : 1,
					"numoutlets" : 0,
					"patching_rect" : [ 899.0, 810.0, 150.0, 20.0 ],
					"presentation" : 1,
					"presentation_rect" : [ 746.642822, 705.0, 150.0, 20.0 ],
					"text" : "9"
				}

			}
, 			{
				"box" : 				{
					"fontname" : "Arial",
					"fontsize" : 12.0,
					"frgb" : 0.0,
					"id" : "obj-45",
					"maxclass" : "comment",
					"numinlets" : 1,
					"numoutlets" : 0,
					"patching_rect" : [ 900.0, 761.0, 150.0, 20.0 ],
					"presentation" : 1,
					"presentation_rect" : [ 746.642822, 653.0, 150.0, 20.0 ],
					"text" : "8"
				}

			}
, 			{
				"box" : 				{
					"fontname" : "Arial",
					"fontsize" : 12.0,
					"frgb" : 0.0,
					"id" : "obj-44",
					"maxclass" : "comment",
					"numinlets" : 1,
					"numoutlets" : 0,
					"patching_rect" : [ 897.0, 713.0, 150.0, 20.0 ],
					"presentation" : 1,
					"presentation_rect" : [ 746.642822, 601.0, 150.0, 20.0 ],
					"text" : "7"
				}

			}
, 			{
				"box" : 				{
					"fontname" : "Arial",
					"fontsize" : 12.0,
					"frgb" : 0.0,
					"id" : "obj-43",
					"maxclass" : "comment",
					"numinlets" : 1,
					"numoutlets" : 0,
					"patching_rect" : [ 895.0, 660.0, 150.0, 20.0 ],
					"presentation" : 1,
					"presentation_rect" : [ 746.642822, 549.0, 150.0, 20.0 ],
					"text" : "6"
				}

			}
, 			{
				"box" : 				{
					"fontname" : "Arial",
					"fontsize" : 12.0,
					"frgb" : 0.0,
					"id" : "obj-42",
					"maxclass" : "comment",
					"numinlets" : 1,
					"numoutlets" : 0,
					"patching_rect" : [ 895.0, 608.0, 150.0, 20.0 ],
					"presentation" : 1,
					"presentation_rect" : [ 746.642822, 497.0, 150.0, 20.0 ],
					"text" : "5"
				}

			}
, 			{
				"box" : 				{
					"fontname" : "Arial",
					"fontsize" : 12.0,
					"frgb" : 0.0,
					"id" : "obj-41",
					"maxclass" : "comment",
					"numinlets" : 1,
					"numoutlets" : 0,
					"patching_rect" : [ 895.0, 558.0, 150.0, 20.0 ],
					"presentation" : 1,
					"presentation_rect" : [ 746.642822, 445.0, 150.0, 20.0 ],
					"text" : "4"
				}

			}
, 			{
				"box" : 				{
					"fontname" : "Arial",
					"fontsize" : 12.0,
					"frgb" : 0.0,
					"id" : "obj-40",
					"maxclass" : "comment",
					"numinlets" : 1,
					"numoutlets" : 0,
					"patching_rect" : [ 895.0, 506.0, 150.0, 20.0 ],
					"presentation" : 1,
					"presentation_rect" : [ 746.642822, 393.0, 150.0, 20.0 ],
					"text" : "3"
				}

			}
, 			{
				"box" : 				{
					"fontname" : "Arial",
					"fontsize" : 12.0,
					"frgb" : 0.0,
					"id" : "obj-39",
					"maxclass" : "comment",
					"numinlets" : 1,
					"numoutlets" : 0,
					"patching_rect" : [ 895.0, 458.0, 150.0, 20.0 ],
					"presentation" : 1,
					"presentation_rect" : [ 746.642822, 341.0, 150.0, 20.0 ],
					"text" : "2"
				}

			}
, 			{
				"box" : 				{
					"fontname" : "Arial",
					"fontsize" : 12.0,
					"frgb" : 0.0,
					"id" : "obj-38",
					"maxclass" : "comment",
					"numinlets" : 1,
					"numoutlets" : 0,
					"patching_rect" : [ 895.0, 402.0, 150.0, 20.0 ],
					"presentation" : 1,
					"presentation_rect" : [ 746.642822, 289.0, 150.0, 20.0 ],
					"text" : "1"
				}

			}
, 			{
				"box" : 				{
					"fontname" : "Arial",
					"fontsize" : 12.0,
					"frgb" : 0.0,
					"id" : "obj-35",
					"maxclass" : "comment",
					"numinlets" : 1,
					"numoutlets" : 0,
					"patching_rect" : [ 895.0, 360.0, 150.0, 20.0 ],
					"presentation" : 1,
					"presentation_rect" : [ 746.642822, 229.0, 150.0, 20.0 ],
					"text" : "outputs"
				}

			}
, 			{
				"box" : 				{
					"id" : "obj-25",
					"maxclass" : "bpatcher",
					"name" : "ajm-mixer-h.maxpat",
					"numinlets" : 1,
					"numoutlets" : 1,
					"outlettype" : [ "signal" ],
					"patching_rect" : [ 717.5, 858.0, 167.0, 60.0 ],
					"presentation" : 1,
					"presentation_rect" : [ 548.642822, 737.0, 184.0, 60.0 ]
				}

			}
, 			{
				"box" : 				{
					"id" : "obj-23",
					"maxclass" : "bpatcher",
					"name" : "ajm-mixer-h.maxpat",
					"numinlets" : 1,
					"numoutlets" : 1,
					"outlettype" : [ "signal" ],
					"patching_rect" : [ 717.5, 798.0, 167.0, 60.0 ],
					"presentation" : 1,
					"presentation_rect" : [ 548.642822, 685.0, 184.0, 60.0 ]
				}

			}
, 			{
				"box" : 				{
					"fontname" : "Arial",
					"fontsize" : 12.0,
					"frgb" : 0.0,
					"id" : "obj-28",
					"linecount" : 3,
					"maxclass" : "comment",
					"numinlets" : 1,
					"numoutlets" : 0,
					"patching_rect" : [ 27.0, 278.0, 150.0, 47.0 ],
					"text" : "the '1.' makes the matrix accept float gain values rather than on-off"
				}

			}
, 			{
				"box" : 				{
					"fontname" : "Arial",
					"fontsize" : 12.0,
					"frgb" : 0.0,
					"id" : "obj-26",
					"linecount" : 4,
					"maxclass" : "comment",
					"numinlets" : 1,
					"numoutlets" : 0,
					"patching_rect" : [ 27.0, 387.0, 160.0, 60.0 ],
					"text" : "in the inspector for each bpatcher here, add the column number as an argument"
				}

			}
, 			{
				"box" : 				{
					"args" : [ 5 ],
					"id" : "obj-27",
					"maxclass" : "bpatcher",
					"name" : "ajm-matrix-column.maxpat",
					"numinlets" : 1,
					"numoutlets" : 1,
					"outlettype" : [ "" ],
					"patching_rect" : [ 1404.785645, 382.0, 41.0, 519.0 ],
					"presentation" : 1,
					"presentation_rect" : [ 368.928589, 273.0, 41.0, 511.0 ]
				}

			}
, 			{
				"box" : 				{
					"fontname" : "Arial",
					"fontsize" : 12.0,
					"id" : "obj-22",
					"maxclass" : "message",
					"numinlets" : 2,
					"numoutlets" : 1,
					"outlettype" : [ "" ],
					"patching_rect" : [ 27.0, 858.0, 32.5, 18.0 ],
					"text" : "0"
				}

			}
, 			{
				"box" : 				{
					"fontname" : "Arial",
					"fontsize" : 12.0,
					"id" : "obj-2",
					"maxclass" : "newobj",
					"numinlets" : 1,
					"numoutlets" : 1,
					"outlettype" : [ "bang" ],
					"patching_rect" : [ 27.0, 825.0, 60.0, 20.0 ],
					"text" : "loadbang"
				}

			}
, 			{
				"box" : 				{
					"args" : [ 7 ],
					"id" : "obj-37",
					"maxclass" : "bpatcher",
					"name" : "ajm-matrix-column.maxpat",
					"numinlets" : 1,
					"numoutlets" : 1,
					"outlettype" : [ "" ],
					"patching_rect" : [ 1536.499878, 382.0, 41.0, 519.0 ],
					"presentation" : 1,
					"presentation_rect" : [ 500.642822, 273.0, 41.0, 511.0 ]
				}

			}
, 			{
				"box" : 				{
					"args" : [ 6 ],
					"id" : "obj-36",
					"maxclass" : "bpatcher",
					"name" : "ajm-matrix-column.maxpat",
					"numinlets" : 1,
					"numoutlets" : 1,
					"outlettype" : [ "" ],
					"patching_rect" : [ 1470.642822, 382.0, 41.0, 519.0 ],
					"presentation" : 1,
					"presentation_rect" : [ 434.785736, 273.0, 41.0, 511.0 ]
				}

			}
, 			{
				"box" : 				{
					"args" : [ 4 ],
					"id" : "obj-34",
					"maxclass" : "bpatcher",
					"name" : "ajm-matrix-column.maxpat",
					"numinlets" : 1,
					"numoutlets" : 1,
					"outlettype" : [ "" ],
					"patching_rect" : [ 1338.928467, 382.0, 41.0, 519.0 ],
					"presentation" : 1,
					"presentation_rect" : [ 303.071381, 273.0, 41.0, 511.0 ]
				}

			}
, 			{
				"box" : 				{
					"args" : [ 3 ],
					"id" : "obj-33",
					"maxclass" : "bpatcher",
					"name" : "ajm-matrix-column.maxpat",
					"numinlets" : 1,
					"numoutlets" : 1,
					"outlettype" : [ "" ],
					"patching_rect" : [ 1272.999878, 382.0, 41.0, 519.0 ],
					"presentation" : 1,
					"presentation_rect" : [ 237.142822, 273.0, 41.0, 511.0 ]
				}

			}
, 			{
				"box" : 				{
					"args" : [ 1 ],
					"id" : "obj-32",
					"maxclass" : "bpatcher",
					"name" : "ajm-matrix-column.maxpat",
					"numinlets" : 1,
					"numoutlets" : 1,
					"outlettype" : [ "" ],
					"patching_rect" : [ 1140.357056, 382.0, 41.0, 519.0 ],
					"presentation" : 1,
					"presentation_rect" : [ 104.499969, 273.0, 41.0, 511.0 ]
				}

			}
, 			{
				"box" : 				{
					"args" : [ 2 ],
					"id" : "obj-30",
					"maxclass" : "bpatcher",
					"name" : "ajm-matrix-column.maxpat",
					"numinlets" : 1,
					"numoutlets" : 1,
					"outlettype" : [ "" ],
					"patching_rect" : [ 1207.214233, 382.0, 41.0, 519.0 ],
					"presentation" : 1,
					"presentation_rect" : [ 171.357147, 273.0, 41.0, 511.0 ]
				}

			}
, 			{
				"box" : 				{
					"args" : [ 0 ],
					"id" : "obj-48",
					"maxclass" : "bpatcher",
					"name" : "ajm-matrix-column.maxpat",
					"numinlets" : 1,
					"numoutlets" : 1,
					"outlettype" : [ "" ],
					"patching_rect" : [ 1075.5, 382.0, 41.0, 519.0 ],
					"presentation" : 1,
					"presentation_rect" : [ 39.642853, 273.0, 41.0, 511.0 ]
				}

			}
, 			{
				"box" : 				{
					"id" : "obj-13",
					"maxclass" : "bpatcher",
					"name" : "ajm-mixer-h.maxpat",
					"numinlets" : 1,
					"numoutlets" : 1,
					"outlettype" : [ "signal" ],
					"patching_rect" : [ 717.5, 746.0, 167.0, 60.0 ],
					"presentation" : 1,
					"presentation_rect" : [ 548.642822, 633.0, 184.0, 60.0 ]
				}

			}
, 			{
				"box" : 				{
					"id" : "obj-14",
					"maxclass" : "bpatcher",
					"name" : "ajm-mixer-h.maxpat",
					"numinlets" : 1,
					"numoutlets" : 1,
					"outlettype" : [ "signal" ],
					"patching_rect" : [ 717.5, 694.0, 167.0, 60.0 ],
					"presentation" : 1,
					"presentation_rect" : [ 548.642822, 581.0, 184.0, 60.0 ]
				}

			}
, 			{
				"box" : 				{
					"id" : "obj-59",
					"maxclass" : "bpatcher",
					"name" : "ajm-mixer-h.maxpat",
					"numinlets" : 1,
					"numoutlets" : 1,
					"outlettype" : [ "signal" ],
					"patching_rect" : [ 717.5, 642.0, 167.0, 60.0 ],
					"presentation" : 1,
					"presentation_rect" : [ 548.642822, 529.0, 184.0, 60.0 ]
				}

			}
, 			{
				"box" : 				{
					"id" : "obj-16",
					"maxclass" : "bpatcher",
					"name" : "ajm-mixer-h.maxpat",
					"numinlets" : 1,
					"numoutlets" : 1,
					"outlettype" : [ "signal" ],
					"patching_rect" : [ 717.5, 590.0, 167.0, 60.0 ],
					"presentation" : 1,
					"presentation_rect" : [ 548.642822, 477.0, 184.0, 60.0 ]
				}

			}
, 			{
				"box" : 				{
					"id" : "obj-17",
					"maxclass" : "bpatcher",
					"name" : "ajm-mixer-h.maxpat",
					"numinlets" : 1,
					"numoutlets" : 1,
					"outlettype" : [ "signal" ],
					"patching_rect" : [ 717.5, 538.0, 167.0, 60.0 ],
					"presentation" : 1,
					"presentation_rect" : [ 548.642822, 425.0, 184.0, 60.0 ]
				}

			}
, 			{
				"box" : 				{
					"id" : "obj-60",
					"maxclass" : "bpatcher",
					"name" : "ajm-mixer-h.maxpat",
					"numinlets" : 1,
					"numoutlets" : 1,
					"outlettype" : [ "signal" ],
					"patching_rect" : [ 717.5, 486.0, 167.0, 60.0 ],
					"presentation" : 1,
					"presentation_rect" : [ 548.642822, 373.0, 184.0, 60.0 ]
				}

			}
, 			{
				"box" : 				{
					"id" : "obj-19",
					"maxclass" : "bpatcher",
					"name" : "ajm-mixer-h.maxpat",
					"numinlets" : 1,
					"numoutlets" : 1,
					"outlettype" : [ "signal" ],
					"patching_rect" : [ 717.5, 434.0, 167.0, 60.0 ],
					"presentation" : 1,
					"presentation_rect" : [ 548.642822, 321.0, 184.0, 60.0 ]
				}

			}
, 			{
				"box" : 				{
					"id" : "obj-20",
					"maxclass" : "bpatcher",
					"name" : "ajm-mixer-h.maxpat",
					"numinlets" : 1,
					"numoutlets" : 1,
					"outlettype" : [ "signal" ],
					"patching_rect" : [ 717.5, 382.0, 167.0, 60.0 ],
					"presentation" : 1,
					"presentation_rect" : [ 548.642822, 269.0, 184.0, 60.0 ]
				}

			}
, 			{
				"box" : 				{
					"id" : "obj-61",
					"maxclass" : "bpatcher",
					"name" : "ajm-mixer.maxpat",
					"numinlets" : 1,
					"numoutlets" : 1,
					"outlettype" : [ "signal" ],
					"patching_rect" : [ 639.642822, 91.0, 61.0, 193.0 ],
					"presentation" : 1,
					"presentation_rect" : [ 497.642822, 71.0, 63.0, 195.0 ]
				}

			}
, 			{
				"box" : 				{
					"id" : "obj-11",
					"maxclass" : "bpatcher",
					"name" : "ajm-mixer.maxpat",
					"numinlets" : 1,
					"numoutlets" : 1,
					"outlettype" : [ "signal" ],
					"patching_rect" : [ 573.785767, 91.0, 61.0, 193.0 ],
					"presentation" : 1,
					"presentation_rect" : [ 431.785706, 71.0, 63.0, 195.0 ]
				}

			}
, 			{
				"box" : 				{
					"id" : "obj-10",
					"maxclass" : "bpatcher",
					"name" : "ajm-mixer.maxpat",
					"numinlets" : 1,
					"numoutlets" : 1,
					"outlettype" : [ "signal" ],
					"patching_rect" : [ 507.928589, 91.0, 61.0, 193.0 ],
					"presentation" : 1,
					"presentation_rect" : [ 365.928589, 71.0, 63.0, 195.0 ]
				}

			}
, 			{
				"box" : 				{
					"id" : "obj-62",
					"maxclass" : "bpatcher",
					"name" : "ajm-mixer.maxpat",
					"numinlets" : 1,
					"numoutlets" : 1,
					"outlettype" : [ "signal" ],
					"patching_rect" : [ 442.071442, 91.0, 61.0, 193.0 ],
					"presentation" : 1,
					"presentation_rect" : [ 300.071411, 71.0, 63.0, 195.0 ]
				}

			}
, 			{
				"box" : 				{
					"id" : "obj-8",
					"maxclass" : "bpatcher",
					"name" : "ajm-mixer.maxpat",
					"numinlets" : 1,
					"numoutlets" : 1,
					"outlettype" : [ "signal" ],
					"patching_rect" : [ 376.214325, 91.0, 61.0, 193.0 ],
					"presentation" : 1,
					"presentation_rect" : [ 234.214294, 71.0, 63.0, 195.0 ]
				}

			}
, 			{
				"box" : 				{
					"id" : "obj-7",
					"maxclass" : "bpatcher",
					"name" : "ajm-mixer.maxpat",
					"numinlets" : 1,
					"numoutlets" : 1,
					"outlettype" : [ "signal" ],
					"patching_rect" : [ 310.357147, 91.0, 61.0, 193.0 ],
					"presentation" : 1,
					"presentation_rect" : [ 168.357117, 71.0, 63.0, 195.0 ]
				}

			}
, 			{
				"box" : 				{
					"id" : "obj-82",
					"maxclass" : "bpatcher",
					"name" : "ajm-mixer.maxpat",
					"numinlets" : 1,
					"numoutlets" : 1,
					"outlettype" : [ "signal" ],
					"patching_rect" : [ 243.500031, 91.0, 61.0, 193.0 ],
					"presentation" : 1,
					"presentation_rect" : [ 101.5, 71.0, 63.0, 195.0 ]
				}

			}
, 			{
				"box" : 				{
					"id" : "obj-1",
					"maxclass" : "bpatcher",
					"name" : "ajm-mixer.maxpat",
					"numinlets" : 1,
					"numoutlets" : 1,
					"outlettype" : [ "signal" ],
					"patching_rect" : [ 178.642822, 91.0, 61.0, 193.0 ],
					"presentation" : 1,
					"presentation_rect" : [ 36.642853, 71.0, 63.0, 195.0 ]
				}

			}
, 			{
				"box" : 				{
					"fontname" : "Arial",
					"fontsize" : 12.0,
					"id" : "obj-5",
					"maxclass" : "newobj",
					"numinlets" : 10,
					"numoutlets" : 0,
					"patching_rect" : [ 68.642944, 948.0, 144.0, 20.0 ],
					"text" : "dac~ 1 2 3 4 5 6 7 8 9 10"
				}

			}
, 			{
				"box" : 				{
					"fontname" : "Arial",
					"fontsize" : 12.0,
					"id" : "obj-4",
					"maxclass" : "newobj",
					"numinlets" : 1,
					"numoutlets" : 8,
					"outlettype" : [ "signal", "signal", "signal", "signal", "signal", "signal", "signal", "signal" ],
					"patching_rect" : [ 178.642822, 26.0, 480.0, 20.0 ],
					"text" : "adc~ 1 2 3 4 5 6 7 8"
				}

			}
, 			{
				"box" : 				{
					"fontname" : "Arial",
					"fontsize" : 12.0,
					"id" : "obj-83",
					"maxclass" : "newobj",
					"numinlets" : 8,
					"numoutlets" : 11,
					"outlettype" : [ "signal", "signal", "signal", "signal", "signal", "signal", "signal", "signal", "signal", "signal", "list" ],
					"patching_rect" : [ 178.642883, 305.0, 601.571289, 20.0 ],
					"text" : "matrix~ 8 10 1."
				}

			}
 ],
		"lines" : [ 			{
				"patchline" : 				{
					"destination" : [ "obj-83", 0 ],
					"disabled" : 0,
					"hidden" : 0,
					"source" : [ "obj-1", 0 ]
				}

			}
, 			{
				"patchline" : 				{
					"destination" : [ "obj-83", 5 ],
					"disabled" : 0,
					"hidden" : 0,
					"source" : [ "obj-10", 0 ]
				}

			}
, 			{
				"patchline" : 				{
					"destination" : [ "obj-83", 6 ],
					"disabled" : 0,
					"hidden" : 0,
					"source" : [ "obj-11", 0 ]
				}

			}
, 			{
				"patchline" : 				{
					"destination" : [ "obj-5", 7 ],
					"disabled" : 0,
					"hidden" : 0,
					"source" : [ "obj-13", 0 ]
				}

			}
, 			{
				"patchline" : 				{
					"destination" : [ "obj-5", 6 ],
					"disabled" : 0,
					"hidden" : 0,
					"source" : [ "obj-14", 0 ]
				}

			}
, 			{
				"patchline" : 				{
					"destination" : [ "obj-5", 4 ],
					"disabled" : 0,
					"hidden" : 0,
					"source" : [ "obj-16", 0 ]
				}

			}
, 			{
				"patchline" : 				{
					"destination" : [ "obj-5", 3 ],
					"disabled" : 0,
					"hidden" : 0,
					"source" : [ "obj-17", 0 ]
				}

			}
, 			{
				"patchline" : 				{
					"destination" : [ "obj-5", 1 ],
					"disabled" : 0,
					"hidden" : 0,
					"source" : [ "obj-19", 0 ]
				}

			}
, 			{
				"patchline" : 				{
					"destination" : [ "obj-22", 0 ],
					"disabled" : 0,
					"hidden" : 0,
					"source" : [ "obj-2", 0 ]
				}

			}
, 			{
				"patchline" : 				{
					"destination" : [ "obj-5", 0 ],
					"disabled" : 0,
					"hidden" : 0,
					"source" : [ "obj-20", 0 ]
				}

			}
, 			{
				"patchline" : 				{
					"destination" : [ "obj-5", 0 ],
					"disabled" : 0,
					"hidden" : 0,
					"source" : [ "obj-22", 0 ]
				}

			}
, 			{
				"patchline" : 				{
					"destination" : [ "obj-5", 8 ],
					"disabled" : 0,
					"hidden" : 0,
					"source" : [ "obj-23", 0 ]
				}

			}
, 			{
				"patchline" : 				{
					"destination" : [ "obj-5", 9 ],
					"disabled" : 0,
					"hidden" : 0,
					"source" : [ "obj-25", 0 ]
				}

			}
, 			{
				"patchline" : 				{
					"destination" : [ "obj-73", 0 ],
					"disabled" : 0,
					"hidden" : 0,
					"source" : [ "obj-27", 0 ]
				}

			}
, 			{
				"patchline" : 				{
					"destination" : [ "obj-73", 0 ],
					"disabled" : 0,
					"hidden" : 0,
					"source" : [ "obj-30", 0 ]
				}

			}
, 			{
				"patchline" : 				{
					"destination" : [ "obj-64", 0 ],
					"disabled" : 0,
					"hidden" : 0,
					"source" : [ "obj-31", 0 ]
				}

			}
, 			{
				"patchline" : 				{
					"destination" : [ "obj-73", 0 ],
					"disabled" : 0,
					"hidden" : 0,
					"source" : [ "obj-32", 0 ]
				}

			}
, 			{
				"patchline" : 				{
					"destination" : [ "obj-73", 0 ],
					"disabled" : 0,
					"hidden" : 0,
					"source" : [ "obj-33", 0 ]
				}

			}
, 			{
				"patchline" : 				{
					"destination" : [ "obj-73", 0 ],
					"disabled" : 0,
					"hidden" : 0,
					"source" : [ "obj-34", 0 ]
				}

			}
, 			{
				"patchline" : 				{
					"destination" : [ "obj-73", 0 ],
					"disabled" : 0,
					"hidden" : 0,
					"source" : [ "obj-36", 0 ]
				}

			}
, 			{
				"patchline" : 				{
					"destination" : [ "obj-73", 0 ],
					"disabled" : 0,
					"hidden" : 0,
					"source" : [ "obj-37", 0 ]
				}

			}
, 			{
				"patchline" : 				{
					"destination" : [ "obj-1", 0 ],
					"disabled" : 0,
					"hidden" : 0,
					"source" : [ "obj-4", 0 ]
				}

			}
, 			{
				"patchline" : 				{
					"destination" : [ "obj-10", 0 ],
					"disabled" : 0,
					"hidden" : 0,
					"source" : [ "obj-4", 5 ]
				}

			}
, 			{
				"patchline" : 				{
					"destination" : [ "obj-11", 0 ],
					"disabled" : 0,
					"hidden" : 0,
					"source" : [ "obj-4", 6 ]
				}

			}
, 			{
				"patchline" : 				{
					"destination" : [ "obj-61", 0 ],
					"disabled" : 0,
					"hidden" : 0,
					"source" : [ "obj-4", 7 ]
				}

			}
, 			{
				"patchline" : 				{
					"destination" : [ "obj-62", 0 ],
					"disabled" : 0,
					"hidden" : 0,
					"source" : [ "obj-4", 4 ]
				}

			}
, 			{
				"patchline" : 				{
					"destination" : [ "obj-7", 0 ],
					"disabled" : 0,
					"hidden" : 0,
					"source" : [ "obj-4", 2 ]
				}

			}
, 			{
				"patchline" : 				{
					"destination" : [ "obj-8", 0 ],
					"disabled" : 0,
					"hidden" : 0,
					"source" : [ "obj-4", 3 ]
				}

			}
, 			{
				"patchline" : 				{
					"destination" : [ "obj-82", 0 ],
					"disabled" : 0,
					"hidden" : 0,
					"source" : [ "obj-4", 1 ]
				}

			}
, 			{
				"patchline" : 				{
					"destination" : [ "obj-73", 0 ],
					"disabled" : 0,
					"hidden" : 0,
					"source" : [ "obj-48", 0 ]
				}

			}
, 			{
				"patchline" : 				{
					"destination" : [ "obj-5", 5 ],
					"disabled" : 0,
					"hidden" : 0,
					"source" : [ "obj-59", 0 ]
				}

			}
, 			{
				"patchline" : 				{
					"destination" : [ "obj-5", 2 ],
					"disabled" : 0,
					"hidden" : 0,
					"source" : [ "obj-60", 0 ]
				}

			}
, 			{
				"patchline" : 				{
					"destination" : [ "obj-83", 7 ],
					"disabled" : 0,
					"hidden" : 0,
					"source" : [ "obj-61", 0 ]
				}

			}
, 			{
				"patchline" : 				{
					"destination" : [ "obj-83", 4 ],
					"disabled" : 0,
					"hidden" : 0,
					"source" : [ "obj-62", 0 ]
				}

			}
, 			{
				"patchline" : 				{
					"destination" : [ "obj-48", 0 ],
					"disabled" : 0,
					"hidden" : 0,
					"source" : [ "obj-63", 0 ]
				}

			}
, 			{
				"patchline" : 				{
					"destination" : [ "obj-63", 0 ],
					"disabled" : 0,
					"hidden" : 0,
					"source" : [ "obj-65", 0 ]
				}

			}
, 			{
				"patchline" : 				{
					"destination" : [ "obj-67", 0 ],
					"disabled" : 0,
					"hidden" : 0,
					"source" : [ "obj-66", 0 ]
				}

			}
, 			{
				"patchline" : 				{
					"destination" : [ "obj-32", 0 ],
					"disabled" : 0,
					"hidden" : 0,
					"source" : [ "obj-67", 0 ]
				}

			}
, 			{
				"patchline" : 				{
					"destination" : [ "obj-70", 0 ],
					"disabled" : 0,
					"hidden" : 0,
					"source" : [ "obj-68", 0 ]
				}

			}
, 			{
				"patchline" : 				{
					"destination" : [ "obj-30", 0 ],
					"disabled" : 0,
					"hidden" : 0,
					"source" : [ "obj-69", 0 ]
				}

			}
, 			{
				"patchline" : 				{
					"destination" : [ "obj-83", 2 ],
					"disabled" : 0,
					"hidden" : 0,
					"source" : [ "obj-7", 0 ]
				}

			}
, 			{
				"patchline" : 				{
					"destination" : [ "obj-33", 0 ],
					"disabled" : 0,
					"hidden" : 0,
					"source" : [ "obj-70", 0 ]
				}

			}
, 			{
				"patchline" : 				{
					"destination" : [ "obj-34", 0 ],
					"disabled" : 0,
					"hidden" : 0,
					"source" : [ "obj-71", 0 ]
				}

			}
, 			{
				"patchline" : 				{
					"destination" : [ "obj-71", 0 ],
					"disabled" : 0,
					"hidden" : 0,
					"source" : [ "obj-72", 0 ]
				}

			}
, 			{
				"patchline" : 				{
					"destination" : [ "obj-83", 0 ],
					"disabled" : 0,
					"hidden" : 0,
					"source" : [ "obj-74", 0 ]
				}

			}
, 			{
				"patchline" : 				{
					"destination" : [ "obj-69", 0 ],
					"disabled" : 0,
					"hidden" : 0,
					"source" : [ "obj-75", 0 ]
				}

			}
, 			{
				"patchline" : 				{
					"destination" : [ "obj-77", 0 ],
					"disabled" : 0,
					"hidden" : 0,
					"source" : [ "obj-76", 0 ]
				}

			}
, 			{
				"patchline" : 				{
					"destination" : [ "obj-27", 0 ],
					"disabled" : 0,
					"hidden" : 0,
					"source" : [ "obj-77", 0 ]
				}

			}
, 			{
				"patchline" : 				{
					"destination" : [ "obj-79", 0 ],
					"disabled" : 0,
					"hidden" : 0,
					"source" : [ "obj-78", 0 ]
				}

			}
, 			{
				"patchline" : 				{
					"destination" : [ "obj-36", 0 ],
					"disabled" : 0,
					"hidden" : 0,
					"source" : [ "obj-79", 0 ]
				}

			}
, 			{
				"patchline" : 				{
					"destination" : [ "obj-83", 3 ],
					"disabled" : 0,
					"hidden" : 0,
					"source" : [ "obj-8", 0 ]
				}

			}
, 			{
				"patchline" : 				{
					"destination" : [ "obj-81", 0 ],
					"disabled" : 0,
					"hidden" : 0,
					"source" : [ "obj-80", 0 ]
				}

			}
, 			{
				"patchline" : 				{
					"destination" : [ "obj-37", 0 ],
					"disabled" : 0,
					"hidden" : 0,
					"source" : [ "obj-81", 0 ]
				}

			}
, 			{
				"patchline" : 				{
					"destination" : [ "obj-83", 1 ],
					"disabled" : 0,
					"hidden" : 0,
					"source" : [ "obj-82", 0 ]
				}

			}
, 			{
				"patchline" : 				{
					"destination" : [ "obj-13", 0 ],
					"disabled" : 0,
					"hidden" : 0,
					"source" : [ "obj-83", 7 ]
				}

			}
, 			{
				"patchline" : 				{
					"destination" : [ "obj-14", 0 ],
					"disabled" : 0,
					"hidden" : 0,
					"source" : [ "obj-83", 6 ]
				}

			}
, 			{
				"patchline" : 				{
					"destination" : [ "obj-16", 0 ],
					"disabled" : 0,
					"hidden" : 0,
					"source" : [ "obj-83", 4 ]
				}

			}
, 			{
				"patchline" : 				{
					"destination" : [ "obj-17", 0 ],
					"disabled" : 0,
					"hidden" : 0,
					"source" : [ "obj-83", 3 ]
				}

			}
, 			{
				"patchline" : 				{
					"destination" : [ "obj-19", 0 ],
					"disabled" : 0,
					"hidden" : 0,
					"source" : [ "obj-83", 1 ]
				}

			}
, 			{
				"patchline" : 				{
					"destination" : [ "obj-20", 0 ],
					"disabled" : 0,
					"hidden" : 0,
					"source" : [ "obj-83", 0 ]
				}

			}
, 			{
				"patchline" : 				{
					"destination" : [ "obj-23", 0 ],
					"disabled" : 0,
					"hidden" : 0,
					"source" : [ "obj-83", 8 ]
				}

			}
, 			{
				"patchline" : 				{
					"destination" : [ "obj-25", 0 ],
					"disabled" : 0,
					"hidden" : 0,
					"source" : [ "obj-83", 9 ]
				}

			}
, 			{
				"patchline" : 				{
					"destination" : [ "obj-59", 0 ],
					"disabled" : 0,
					"hidden" : 0,
					"source" : [ "obj-83", 5 ]
				}

			}
, 			{
				"patchline" : 				{
					"destination" : [ "obj-60", 0 ],
					"disabled" : 0,
					"hidden" : 0,
					"source" : [ "obj-83", 2 ]
				}

			}
 ],
		"parameters" : 		{
			"obj-33::obj-19::obj-32" : [ "live.dial[101]", "live.dial", 0 ],
			"obj-30::obj-1::obj-32" : [ "live.dial[80]", "live.dial", 0 ],
			"obj-34::obj-1::obj-32" : [ "live.dial[110]", "live.dial", 0 ],
			"obj-1::obj-12" : [ "live.slider", "live.slider", 0 ],
			"obj-37::obj-43::obj-32" : [ "live.dial[137]", "live.dial", 0 ],
			"obj-34::obj-19::obj-32" : [ "live.dial[111]", "live.dial", 0 ],
			"obj-36::obj-23::obj-32" : [ "live.dial[122]", "live.dial", 0 ],
			"obj-30::obj-43::obj-32" : [ "live.dial[87]", "live.dial", 0 ],
			"obj-33::obj-31::obj-32" : [ "live.dial[104]", "live.dial", 0 ],
			"obj-30::obj-15::obj-32" : [ "live.dial[89]", "live.dial", 0 ],
			"obj-33::obj-35::obj-32" : [ "live.dial[105]", "live.dial", 0 ],
			"obj-61::obj-12" : [ "live.slider[7]", "live.slider", 0 ],
			"obj-36::obj-15::obj-32" : [ "live.dial[129]", "live.dial", 0 ],
			"obj-32::obj-19::obj-32" : [ "live.dial[91]", "live.dial", 0 ],
			"obj-48::obj-27::obj-32" : [ "live.dial[73]", "live.dial", 0 ],
			"obj-27::obj-31::obj-32" : [ "live.dial[144]", "live.dial", 0 ],
			"obj-34::obj-35::obj-32" : [ "live.dial[115]", "live.dial", 0 ],
			"obj-60::obj-12" : [ "live.slider[10]", "live.slider", 0 ],
			"obj-48::obj-48::obj-32" : [ "live.dial[78]", "live.dial", 0 ],
			"obj-14::obj-12" : [ "live.slider[14]", "live.slider", 0 ],
			"obj-32::obj-31::obj-32" : [ "live.dial[94]", "live.dial", 0 ],
			"obj-25::obj-12" : [ "live.slider[17]", "live.slider", 0 ],
			"obj-34::obj-15::obj-32" : [ "live.dial[119]", "live.dial", 0 ],
			"obj-37::obj-39::obj-32" : [ "live.dial[136]", "live.dial", 0 ],
			"obj-32::obj-39::obj-32" : [ "live.dial[96]", "live.dial", 0 ],
			"obj-36::obj-19::obj-32" : [ "live.dial[121]", "live.dial", 0 ],
			"obj-30::obj-39::obj-32" : [ "live.dial[86]", "live.dial", 0 ],
			"obj-30::obj-48::obj-32" : [ "live.dial[88]", "live.dial", 0 ],
			"obj-7::obj-12" : [ "live.slider[2]", "live.slider", 0 ],
			"obj-36::obj-39::obj-32" : [ "live.dial[126]", "live.dial", 0 ],
			"obj-48::obj-19::obj-32" : [ "live.dial[71]", "live.dial", 0 ],
			"obj-27::obj-27::obj-32" : [ "live.dial[143]", "live.dial", 0 ],
			"obj-33::obj-39::obj-32" : [ "live.dial[106]", "live.dial", 0 ],
			"obj-10::obj-12" : [ "live.slider[5]", "live.slider", 0 ],
			"obj-36::obj-48::obj-32" : [ "live.dial[128]", "live.dial", 0 ],
			"obj-48::obj-39::obj-32" : [ "live.dial[76]", "live.dial", 0 ],
			"obj-34::obj-39::obj-32" : [ "live.dial[116]", "live.dial", 0 ],
			"obj-37::obj-27::obj-32" : [ "live.dial[133]", "live.dial", 0 ],
			"obj-32::obj-43::obj-32" : [ "live.dial[97]", "live.dial", 0 ],
			"obj-23::obj-12" : [ "live.slider[16]", "live.slider", 0 ],
			"obj-34::obj-48::obj-32" : [ "live.dial[118]", "live.dial", 0 ],
			"obj-30::obj-31::obj-32" : [ "live.dial[84]", "live.dial", 0 ],
			"obj-37::obj-35::obj-32" : [ "live.dial[135]", "live.dial", 0 ],
			"obj-33::obj-23::obj-32" : [ "live.dial[102]", "live.dial", 0 ],
			"obj-36::obj-1::obj-32" : [ "live.dial[120]", "live.dial", 0 ],
			"obj-30::obj-35::obj-32" : [ "live.dial[85]", "live.dial", 0 ],
			"obj-33::obj-27::obj-32" : [ "live.dial[103]", "live.dial", 0 ],
			"obj-27::obj-1::obj-32" : [ "live.dial[140]", "live.dial", 0 ],
			"obj-33::obj-1::obj-32" : [ "live.dial[100]", "live.dial", 0 ],
			"obj-11::obj-12" : [ "live.slider[6]", "live.slider", 0 ],
			"obj-36::obj-35::obj-32" : [ "live.dial[125]", "live.dial", 0 ],
			"obj-27::obj-23::obj-32" : [ "live.dial[142]", "live.dial", 0 ],
			"obj-62::obj-12" : [ "live.slider[4]", "live.slider", 0 ],
			"obj-36::obj-43::obj-32" : [ "live.dial[127]", "live.dial", 0 ],
			"obj-48::obj-31::obj-32" : [ "live.dial[74]", "live.dial", 0 ],
			"obj-33::obj-43::obj-32" : [ "live.dial[107]", "live.dial", 0 ],
			"obj-17::obj-12" : [ "live.slider[11]", "live.slider", 0 ],
			"obj-37::obj-23::obj-32" : [ "live.dial[132]", "live.dial", 0 ],
			"obj-33::obj-15::obj-32" : [ "live.dial[109]", "live.dial", 0 ],
			"obj-48::obj-15::obj-32" : [ "live.dial[79]", "live.dial", 0 ],
			"obj-27::obj-43::obj-32" : [ "live.dial[147]", "live.dial", 0 ],
			"obj-34::obj-43::obj-32" : [ "live.dial[117]", "live.dial", 0 ],
			"obj-30::obj-27::obj-32" : [ "live.dial[83]", "live.dial", 0 ],
			"obj-59::obj-12" : [ "live.slider[13]", "live.slider", 0 ],
			"obj-37::obj-31::obj-32" : [ "live.dial[134]", "live.dial", 0 ],
			"obj-27::obj-15::obj-32" : [ "live.dial[149]", "live.dial", 0 ],
			"obj-30::obj-23::obj-32" : [ "live.dial[82]", "live.dial", 0 ],
			"obj-37::obj-15::obj-32" : [ "live.dial[139]", "live.dial", 0 ],
			"obj-34::obj-23::obj-32" : [ "live.dial[112]", "live.dial", 0 ],
			"obj-36::obj-31::obj-32" : [ "live.dial[124]", "live.dial", 0 ],
			"obj-27::obj-19::obj-32" : [ "live.dial[141]", "live.dial", 0 ],
			"obj-34::obj-27::obj-32" : [ "live.dial[113]", "live.dial", 0 ],
			"obj-82::obj-12" : [ "live.slider[1]", "live.slider", 0 ],
			"obj-48::obj-23::obj-32" : [ "live.dial[72]", "live.dial", 0 ],
			"obj-19::obj-12" : [ "live.slider[9]", "live.slider", 0 ],
			"obj-37::obj-19::obj-32" : [ "live.dial[131]", "live.dial", 0 ],
			"obj-32::obj-27::obj-32" : [ "live.dial[93]", "live.dial", 0 ],
			"obj-48::obj-43::obj-32" : [ "live.dial[77]", "live.dial", 0 ],
			"obj-27::obj-39::obj-32" : [ "live.dial[146]", "live.dial", 0 ],
			"obj-33::obj-48::obj-32" : [ "live.dial[108]", "live.dial", 0 ],
			"obj-13::obj-12" : [ "live.slider[15]", "live.slider", 0 ],
			"obj-32::obj-35::obj-32" : [ "live.dial[95]", "live.dial", 0 ],
			"obj-27::obj-48::obj-32" : [ "live.dial[148]", "live.dial", 0 ],
			"obj-30::obj-19::obj-32" : [ "live.dial[81]", "live.dial", 0 ],
			"obj-32::obj-48::obj-32" : [ "live.dial[98]", "live.dial", 0 ],
			"obj-37::obj-48::obj-32" : [ "live.dial[138]", "live.dial", 0 ],
			"obj-32::obj-15::obj-32" : [ "live.dial[99]", "live.dial", 0 ],
			"obj-36::obj-27::obj-32" : [ "live.dial[123]", "live.dial", 0 ],
			"obj-8::obj-12" : [ "live.slider[3]", "live.slider", 0 ],
			"obj-32::obj-1::obj-32" : [ "live.dial[90]", "live.dial", 0 ],
			"obj-48::obj-1::obj-32" : [ "live.dial[70]", "live.dial", 0 ],
			"obj-34::obj-31::obj-32" : [ "live.dial[114]", "live.dial", 0 ],
			"obj-20::obj-12" : [ "live.slider[8]", "live.slider", 0 ],
			"obj-37::obj-1::obj-32" : [ "live.dial[130]", "live.dial", 0 ],
			"obj-32::obj-23::obj-32" : [ "live.dial[92]", "live.dial", 0 ],
			"obj-48::obj-35::obj-32" : [ "live.dial[75]", "live.dial", 0 ],
			"obj-27::obj-35::obj-32" : [ "live.dial[145]", "live.dial", 0 ],
			"obj-16::obj-12" : [ "live.slider[12]", "live.slider", 0 ]
		}
,
		"dependency_cache" : [ 			{
				"name" : "ajm-mixer.maxpat",
				"bootpath" : "/Users/ajm/Dropbox/~/Work/maxmsp/abstractions",
				"patcherrelativepath" : ".",
				"type" : "JSON",
				"implicit" : 1
			}
, 			{
				"name" : "ajm-mixer-h.maxpat",
				"bootpath" : "/Users/ajm/Dropbox/~/Work/maxmsp/abstractions",
				"patcherrelativepath" : ".",
				"type" : "JSON",
				"implicit" : 1
			}
, 			{
				"name" : "ajm-matrix-column.maxpat",
				"bootpath" : "/Users/ajm/Dropbox/~/Work/maxmsp/abstractions",
				"patcherrelativepath" : ".",
				"type" : "JSON",
				"implicit" : 1
			}
, 			{
				"name" : "ajm-matrix-dial.maxpat",
				"bootpath" : "/Users/ajm/Dropbox/~/Work/maxmsp/abstractions",
				"patcherrelativepath" : ".",
				"type" : "JSON",
				"implicit" : 1
			}
, 			{
				"name" : "OSC-route.mxo",
				"type" : "iLaX"
			}
 ]
	}

}
